<svg xmlns="http://www.w3.org/2000/svg" xmlns:xlink="http://www.w3.org/1999/xlink" width="250.54" height="50.756" viewBox="0 0 250.54 50.756">
  <defs>
    <clipPath id="clip-path">
      <rect id="Rectangle_21" data-name="Rectangle 21" width="250.54" height="50.756" fill="#0e366c"/>
    </clipPath>
  </defs>
  <g id="Group_43" data-name="Group 43" transform="translate(0 0)">
    <g id="Group_42" data-name="Group 42" transform="translate(0 0)" clip-path="url(#clip-path)">
      <path id="Path_23" data-name="Path 23" d="M8.776,25.078a2.021,2.021,0,0,0,.095,2.742c4.436,4.433,8.629,8.629,13.066,13.063a3.267,3.267,0,0,1,.943,1.894v7.588c0,.521-.426.521-.943,0C15.02,43.444,8.343,36.773,1.428,29.854a4.9,4.9,0,0,1,0-6.916L14.1,10.267a4.9,4.9,0,0,1,6.913,0q5.628,5.623,11.232,11.259c2.652,2.652,1.494,8.134-3.877,8.134H14.812a.949.949,0,0,1-.946-.945V23.9a.945.945,0,0,1,.946-.945h8.515a.354.354,0,0,0,.3-.6l-4.641-4.64a2.01,2.01,0,0,0-2.839,0Zm17.91,25.287c-.518.521-.94.521-.94,0V42.777a3.261,3.261,0,0,1,.94-1.894L39.753,27.821a2.024,2.024,0,0,0,.095-2.742Q31.381,16.614,22.934,8.136C20.283,5.488,21.442,0,26.812,0H47.663a.947.947,0,0,1,.943.942V5.757a.948.948,0,0,1-.943.948h-15.8a.351.351,0,0,0-.3.6L47.2,22.939a4.9,4.9,0,0,1,0,6.916Z" transform="translate(0 0.001)" fill="#fd9405" fill-rule="evenodd"/>
      <path id="Path_24" data-name="Path 24" d="M153.072,8.763h4.7v2.159a3.727,3.727,0,0,0-1.3,1.232,7.71,7.71,0,0,0-1.037,2.887l-.175,1.08a1.547,1.547,0,0,1-.384.823,1.042,1.042,0,0,1-.746.29,1,1,0,0,1-.763-.322,1.206,1.206,0,0,1-.29-.839Z" transform="translate(77.207 4.421)" fill="#0e366c"/>
      <path id="Path_25" data-name="Path 25" d="M168.117,8.763v7.31a1.221,1.221,0,0,1-.292.839,1.015,1.015,0,0,1-.763.322,1.032,1.032,0,0,1-.746-.29,1.548,1.548,0,0,1-.385-.823l-.175-1.08a7.633,7.633,0,0,0-1.038-2.887,3.874,3.874,0,0,0-1.3-1.232V8.763Z" transform="translate(82.423 4.421)" fill="#0e366c"/>
      <path id="Path_26" data-name="Path 26" d="M165.831,8.763V29.755a1.516,1.516,0,0,0,.266,1,.774.774,0,0,0,.269.227c.078.03.354.1.817.223a.954.954,0,0,1,.862.984.841.841,0,0,1-.466.748,2.246,2.246,0,0,1-1.139.214h-9.154a2.358,2.358,0,0,1-1.184-.239.788.788,0,0,1-.406-.722.954.954,0,0,1,.856-.984c.469-.122.74-.193.824-.223a.6.6,0,0,0,.251-.227,1.516,1.516,0,0,0,.266-1V8.763Z" transform="translate(78.53 4.421)" fill="#0e366c"/>
      <path id="Path_27" data-name="Path 27" d="M146.475,19.4V17.33a4.737,4.737,0,0,0,1.545-1.082,3.775,3.775,0,0,0,.721-1.584,2.128,2.128,0,0,1,.373-.939.858.858,0,0,1,.666-.259.8.8,0,0,1,.787.444,2.9,2.9,0,0,1,.122,1.059v6.8a2.509,2.509,0,0,1-.188,1.169.719.719,0,0,1-.681.322.86.86,0,0,1-.65-.25,1.847,1.847,0,0,1-.37-.844,4.837,4.837,0,0,0-.882-1.9,2.579,2.579,0,0,0-1.443-.871" transform="translate(73.88 6.793)" fill="#0e366c"/>
      <path id="Path_28" data-name="Path 28" d="M146.532,8.763h7.2v6.231a1.446,1.446,0,0,1-.214.883.861.861,0,0,1-.7.266.807.807,0,0,1-.567-.188,1.486,1.486,0,0,1-.349-.635,7.52,7.52,0,0,0-.691-1.605,6.045,6.045,0,0,0-.964-1.255,5.3,5.3,0,0,0-1.611-1.088,7.645,7.645,0,0,0-2.111-.519Z" transform="translate(73.908 4.421)" fill="#0e366c"/>
      <path id="Path_29" data-name="Path 29" d="M148.76,8.763V29.755a1.507,1.507,0,0,0,.268,1,.714.714,0,0,0,.269.227c.078.03.352.1.817.223a.954.954,0,0,1,.862.984.84.84,0,0,1-.463.748,2.238,2.238,0,0,1-1.13.214h-9.04a1.741,1.741,0,0,1-.993-.239.779.779,0,0,1-.346-.684.936.936,0,0,1,.713-.969c.393-.129.621-.211.688-.238a.631.631,0,0,0,.209-.212,1.549,1.549,0,0,0,.211-.9V12.017a1.58,1.58,0,0,0-.211-.915.609.609,0,0,0-.209-.2q-.1-.05-.687-.236A.943.943,0,0,1,139,9.693.792.792,0,0,1,139.35,9a1.717,1.717,0,0,1,.993-.241h8.417Z" transform="translate(70.111 4.421)" fill="#0e366c"/>
      <path id="Path_30" data-name="Path 30" d="M131.044,10.371V8.444a9.556,9.556,0,0,1,6.511,2.819q3.649,3.559,3.645,9.885,0,6.206-3.489,9.664a10.161,10.161,0,0,1-6.667,2.983V31.834a2.208,2.208,0,0,0,.727-.283,1.681,1.681,0,0,0,.475-.489,4.054,4.054,0,0,0,.483-2.214V12.87a2.991,2.991,0,0,0-.323-1.5,1.739,1.739,0,0,0-.512-.588,3.364,3.364,0,0,0-.85-.411" transform="translate(66.096 4.26)" fill="#0e366c"/>
      <path id="Path_31" data-name="Path 31" d="M133.469,10.371a2.476,2.476,0,0,0-1.286.88,2.856,2.856,0,0,0-.372,1.619V28.848a4.165,4.165,0,0,0,.427,2.214,1.965,1.965,0,0,0,1.231.772V33.8a10.29,10.29,0,0,1-6.645-2.983q-3.491-3.464-3.487-9.664a16.265,16.265,0,0,1,.919-5.617,11.169,11.169,0,0,1,2.729-4.268,10.046,10.046,0,0,1,2.964-2.034,9.919,9.919,0,0,1,3.52-.785Z" transform="translate(62.209 4.26)" fill="#0e366c"/>
      <path id="Path_32" data-name="Path 32" d="M117.236,26.441v2.037A7.582,7.582,0,0,1,114,27.636c-.444-.2-.745-.332-.915-.39a1.348,1.348,0,0,0-.481-.092,1.037,1.037,0,0,0-.537.114,4.028,4.028,0,0,0-.573.582.907.907,0,0,1-.7.394c-.665,0-1-.516-1-1.534v-6.5a1.313,1.313,0,0,1,.289-.851.928.928,0,0,1,.712-.367.745.745,0,0,1,.62.232,1.946,1.946,0,0,1,.384.845,11.867,11.867,0,0,0,1.187,2.876,9.322,9.322,0,0,0,1.811,2.269,4.961,4.961,0,0,0,2.434,1.232" transform="translate(55.381 9.577)" fill="#0e366c"/>
      <path id="Path_33" data-name="Path 33" d="M116.295,10.47V8.505a9.868,9.868,0,0,1,1.862.274,17.963,17.963,0,0,1,2.229.815,1.766,1.766,0,0,0,.591.14.577.577,0,0,0,.5-.233l.391-.518a.86.86,0,0,1,.7-.4.775.775,0,0,1,.7.352,2.042,2.042,0,0,1,.226,1.1v5.9a1.264,1.264,0,0,1-.29.85,1,1,0,0,1-.767.326,1.06,1.06,0,0,1-.654-.229,1.142,1.142,0,0,1-.265-.349,3.332,3.332,0,0,1-.187-.686,7.608,7.608,0,0,0-.677-1.81,8.18,8.18,0,0,0-1.131-1.662,6.059,6.059,0,0,0-3.231-1.908" transform="translate(58.657 4.29)" fill="#0e366c"/>
      <path id="Path_34" data-name="Path 34" d="M118.164,8.443V10.5a3.49,3.49,0,0,0-1.689.934A2.227,2.227,0,0,0,115.893,13a2.556,2.556,0,0,0,.486,1.56,4.679,4.679,0,0,0,1.572,1.277c.5.281,1.632.8,3.4,1.577a18.915,18.915,0,0,1,2.487,1.259,8.542,8.542,0,0,1,1.67,1.4,7.354,7.354,0,0,1,2.112,5.27,8.128,8.128,0,0,1-4.289,7.22,10.972,10.972,0,0,1-2.353.9,9.643,9.643,0,0,1-2.387.328V31.759a4.832,4.832,0,0,0,2.246-1.041,2.441,2.441,0,0,0,.691-1.817,2.73,2.73,0,0,0-1.073-2.109,12.89,12.89,0,0,0-2.714-1.465q-2.2-.959-3.015-1.37a11.323,11.323,0,0,1-1.563-.969A7.464,7.464,0,0,1,109.8,16.61a8.436,8.436,0,0,1,.844-3.761,7.076,7.076,0,0,1,2.335-2.782,9.674,9.674,0,0,1,5.186-1.625" transform="translate(55.381 4.259)" fill="#0e366c"/>
      <path id="Path_35" data-name="Path 35" d="M103.4,27.814v-2a7.9,7.9,0,0,0,1.381-.361,3.628,3.628,0,0,0,.978-.573,5.884,5.884,0,0,0,1.372-1.623,10.523,10.523,0,0,0,1.02-2.3,4.291,4.291,0,0,1,.531-1.3.83.83,0,0,1,.7-.308.763.763,0,0,1,.731.408,1.826,1.826,0,0,1,.111.787v7.274Z" transform="translate(52.155 9.758)" fill="#0e366c"/>
      <path id="Path_36" data-name="Path 36" d="M105.712,33.152H97.3a1.734,1.734,0,0,1-.991-.239.786.786,0,0,1-.349-.684.935.935,0,0,1,.71-.967c.4-.131.624-.212.692-.238a.584.584,0,0,0,.206-.214,1.529,1.529,0,0,0,.215-.9V12.017a1.568,1.568,0,0,0-.215-.915.575.575,0,0,0-.206-.2,7.278,7.278,0,0,0-.692-.236.945.945,0,0,1-.71-.97.8.8,0,0,1,.349-.688,1.733,1.733,0,0,1,.991-.242h9.038a2.225,2.225,0,0,1,1.128.215.842.842,0,0,1,.463.749.948.948,0,0,1-.857.982c-.466.111-.739.181-.818.212a.783.783,0,0,0-.266.223,1.507,1.507,0,0,0-.271,1Z" transform="translate(48.398 4.421)" fill="#0e366c"/>
      <path id="Path_37" data-name="Path 37" d="M89.018,27.532V25.606a8.722,8.722,0,0,0,1.921-.5,6,6,0,0,0,1.533-.991,6.433,6.433,0,0,0,1.219-1.363,9.1,9.1,0,0,0,.865-1.871,2.078,2.078,0,0,1,.415-.772.975.975,0,0,1,1.288.078,2.094,2.094,0,0,1,.2,1.041v6.3Z" transform="translate(44.899 10.041)" fill="#0e366c"/>
      <path id="Path_38" data-name="Path 38" d="M88.949,19.4V17.33a4.7,4.7,0,0,0,1.539-1.1,3.822,3.822,0,0,0,.733-1.571,2.043,2.043,0,0,1,.372-.939.843.843,0,0,1,.663-.259.791.791,0,0,1,.785.444,2.8,2.8,0,0,1,.122,1.059v6.8a2.489,2.489,0,0,1-.188,1.169.719.719,0,0,1-.683.322.861.861,0,0,1-.648-.25,1.848,1.848,0,0,1-.369-.844,4.814,4.814,0,0,0-.865-1.9,2.668,2.668,0,0,0-1.461-.871" transform="translate(44.864 6.793)" fill="#0e366c"/>
      <path id="Path_39" data-name="Path 39" d="M89.006,8.763h7.2v6.324A1.242,1.242,0,0,1,96,15.9a1.078,1.078,0,0,1-1.25.09,1.6,1.6,0,0,1-.34-.665,6.731,6.731,0,0,0-1.993-3.167,6.188,6.188,0,0,0-3.406-1.3Z" transform="translate(44.893 4.421)" fill="#0e366c"/>
      <path id="Path_40" data-name="Path 40" d="M91.224,8.763V33.152H82.809a1.747,1.747,0,0,1-.994-.239.786.786,0,0,1-.351-.684.94.94,0,0,1,.716-.969c.4-.129.62-.211.689-.238a.578.578,0,0,0,.206-.212,1.522,1.522,0,0,0,.217-.9V12.017a1.553,1.553,0,0,0-.217-.915.558.558,0,0,0-.206-.2c-.069-.033-.293-.111-.689-.236a.947.947,0,0,1-.716-.969A.8.8,0,0,1,81.815,9a1.723,1.723,0,0,1,.994-.241h8.416Z" transform="translate(41.089 4.421)" fill="#0e366c"/>
      <path id="Path_41" data-name="Path 41" d="M74.731,27.835v-2.18A6.641,6.641,0,0,0,77.665,24.6a5.557,5.557,0,0,0,1.465-1.381,6.414,6.414,0,0,0,.964-1.9,2.025,2.025,0,0,1,.418-.811.852.852,0,0,1,.635-.245.9.9,0,0,1,.713.322,1.149,1.149,0,0,1,.287.806,4.36,4.36,0,0,1-.615,1.947,9.15,9.15,0,0,1-1.583,2.1A8.639,8.639,0,0,1,77.531,27.2a7.477,7.477,0,0,1-2.8.639" transform="translate(37.693 10.22)" fill="#0e366c"/>
      <path id="Path_42" data-name="Path 42" d="M74.695,10.62V8.46a10.838,10.838,0,0,1,1.42.308c.366.1,1.018.331,1.977.674a4.641,4.641,0,0,0,1.214.323.856.856,0,0,0,.788-.459l.229-.436a.808.808,0,0,1,.808-.427.959.959,0,0,1,.742.286,1.214,1.214,0,0,1,.257.835V17a1.429,1.429,0,0,1-.322,1.034,1.016,1.016,0,0,1-.734.325.918.918,0,0,1-.687-.275,2.187,2.187,0,0,1-.423-.9,15.341,15.341,0,0,0-.731-2.223,10.141,10.141,0,0,0-1.748-2.75,5.747,5.747,0,0,0-1.325-1.1,3.96,3.96,0,0,0-1.464-.493" transform="translate(37.675 4.259)" fill="#0e366c"/>
      <path id="Path_43" data-name="Path 43" d="M77.3,8.45v2.16a2.212,2.212,0,0,0-1.574.931,3.915,3.915,0,0,0-.518,2.2V29.264a2.812,2.812,0,0,0,.608,1.644,1.725,1.725,0,0,0,.6.51,2.5,2.5,0,0,0,.88.2V33.8A10.188,10.188,0,0,1,71.274,32a9.739,9.739,0,0,1-3.389-4.275,16.192,16.192,0,0,1-1.148-6.37,16.6,16.6,0,0,1,.743-5.034,11.992,11.992,0,0,1,2.151-4.045,11.129,11.129,0,0,1,3.425-2.786A8.192,8.192,0,0,1,76.893,8.43Z" transform="translate(33.661 4.253)" fill="#0e366c"/>
      <path id="Path_44" data-name="Path 44" d="M59.16,19.18l.984,2.034-1.106,1.807a3.38,3.38,0,0,0-.611,1.6,1.321,1.321,0,0,0,.963,1.246,2.132,2.132,0,0,1,.742.43.876.876,0,0,1,.193.594.972.972,0,0,1-.427.817.891.891,0,0,1-.358.159,5.618,5.618,0,0,1-.749.035H54.178a1.492,1.492,0,0,1-.9-.239.786.786,0,0,1-.328-.668.8.8,0,0,1,.2-.566,1.959,1.959,0,0,1,.719-.42,4.08,4.08,0,0,0,2.076-1.7Z" transform="translate(26.706 9.675)" fill="#0e366c"/>
      <path id="Path_45" data-name="Path 45" d="M63.226,16.84l-1-1.984,1-1.692a2.166,2.166,0,0,0,.34-1.023,1.527,1.527,0,0,0-.879-1.321l-.626-.289a.771.771,0,0,1-.311-.34,1,1,0,0,1-.137-.5.823.823,0,0,1,.307-.677,1.233,1.233,0,0,1,.8-.253h5.166a1.411,1.411,0,0,1,.83.227.656.656,0,0,1,.326.576,1.021,1.021,0,0,1-.32.751,5.23,5.23,0,0,1-.749.444,5.812,5.812,0,0,0-2.1,2.017Z" transform="translate(31.077 4.421)" fill="#0e366c"/>
      <path id="Path_46" data-name="Path 46" d="M63.656,11.89l9,18.281a2.035,2.035,0,0,0,.87.91,1.934,1.934,0,0,1,.654.465,1.032,1.032,0,0,1-.191,1.355,2.2,2.2,0,0,1-1.288.25H64.32a3.759,3.759,0,0,1-1.25-.126.923.923,0,0,1-.621-.907.667.667,0,0,1,.12-.4,2.672,2.672,0,0,1,.469-.42c.4-.3.6-.567.585-.823a2.726,2.726,0,0,0-.322-.912L54.532,11.89a2.727,2.727,0,0,0-.463-.707,2.746,2.746,0,0,0-.662-.474,1.194,1.194,0,0,1-.493-.393,1.089,1.089,0,0,1-.132-.588.787.787,0,0,1,.384-.752,3.1,3.1,0,0,1,1.367-.212h8.324a2.8,2.8,0,0,1,1.312.23.8.8,0,0,1,.4.754,1.111,1.111,0,0,1-.594.913,1.638,1.638,0,0,0-.364.329.57.57,0,0,0-.1.364,1.266,1.266,0,0,0,.141.536" transform="translate(26.622 4.421)" fill="#0e366c"/>
      <path id="Path_47" data-name="Path 47" d="M45.919,27.532V25.606a8.791,8.791,0,0,0,1.921-.5,6.071,6.071,0,0,0,1.531-.991,6.392,6.392,0,0,0,1.219-1.363,9.093,9.093,0,0,0,.867-1.871,2,2,0,0,1,.415-.772.971.971,0,0,1,1.285.078,2.056,2.056,0,0,1,.2,1.041v6.3Z" transform="translate(23.161 10.041)" fill="#0e366c"/>
      <path id="Path_48" data-name="Path 48" d="M45.85,19.4V17.33a4.711,4.711,0,0,0,1.536-1.1,3.822,3.822,0,0,0,.733-1.571,2.132,2.132,0,0,1,.37-.939.856.856,0,0,1,.666-.259.8.8,0,0,1,.787.444,2.906,2.906,0,0,1,.12,1.059v6.8a2.509,2.509,0,0,1-.188,1.169.725.725,0,0,1-.685.322.858.858,0,0,1-.647-.25,1.879,1.879,0,0,1-.37-.844,4.752,4.752,0,0,0-.867-1.9A2.656,2.656,0,0,0,45.85,19.4" transform="translate(23.126 6.793)" fill="#0e366c"/>
      <path id="Path_49" data-name="Path 49" d="M45.906,8.763h7.2v6.324a1.252,1.252,0,0,1-.212.808.868.868,0,0,1-.681.248.85.85,0,0,1-.569-.158,1.615,1.615,0,0,1-.341-.665,6.721,6.721,0,0,0-1.995-3.167,6.178,6.178,0,0,0-3.4-1.3Z" transform="translate(23.154 4.421)" fill="#0e366c"/>
      <path id="Path_50" data-name="Path 50" d="M48.124,8.763V33.152H39.707a1.748,1.748,0,0,1-.993-.239.789.789,0,0,1-.351-.684.94.94,0,0,1,.716-.969c.4-.129.624-.211.689-.238a.59.59,0,0,0,.206-.212,1.514,1.514,0,0,0,.212-.9V12.017a1.545,1.545,0,0,0-.212-.915.569.569,0,0,0-.206-.2c-.065-.033-.293-.111-.689-.236a.947.947,0,0,1-.716-.969A.8.8,0,0,1,38.715,9a1.724,1.724,0,0,1,.993-.241h8.417Z" transform="translate(19.35 4.421)" fill="#0e366c"/>
    </g>
  </g>
</svg>
