<svg xmlns="http://www.w3.org/2000/svg" width="50" height="34.375" viewBox="0 0 50 34.375">
  <path id="Union_2" data-name="Union 2" d="M389.778,203.375H374.5a12.911,12.911,0,0,1-1.354-25.7A15.567,15.567,0,0,1,387,169a15.735,15.735,0,0,1,15.313,12.976,10.727,10.727,0,0,1-.729,21.4Zm11.805-4.3a6.448,6.448,0,0,0,0-12.891h-3.125v-1.074a11.421,11.421,0,0,0-22.479-3.223H374.5a8.6,8.6,0,0,0,0,17.187h10.278v-8.594h-5l7.425-7.734,7.575,7.734h-5v8.594Z" transform="translate(-362 -169)" fill="#5f6669"/>
</svg>
